<svg width="31" height="28" viewBox="0 0 31 28" fill="none" xmlns="http://www.w3.org/2000/svg">
<path d="M18.0732 9.78479C18.0732 9.86427 18.0335 9.93239 17.954 9.98916L13.9688 14.0084L17.954 18.0107C18.0335 18.0788 18.0732 18.1583 18.0732 18.2491C18.0732 18.3399 18.0335 18.4194 17.954 18.4875L17.4431 18.9985C17.3863 19.0552 17.3182 19.0836 17.2387 19.0836C17.1592 19.0836 17.0797 19.0552 17.0003 18.9985L12.2487 14.2298C12.1805 14.1731 12.1465 14.0993 12.1465 14.0084C12.1465 13.9176 12.1805 13.8381 12.2487 13.77L17.0003 9.03544C17.057 8.95596 17.1365 8.91622 17.2387 8.91622C17.3409 8.91622 17.409 8.95596 17.4431 9.03544L17.954 9.54636C18.0335 9.60313 18.0732 9.68261 18.0732 9.78479Z" fill="#4B5563"/>
</svg>
